HIERARCHY
ROOT Hips
{
	OFFSET 0.00000 0.00000 0.00000
	CHANNELS 6 Xposition Yposition Zposition Zrotation Yrotation Xrotation 
	JOINT LHipJoint
	{
		OFFSET 0 0 0
		CHANNELS 3 Zrotation Yrotation Xrotation
		JOINT LeftUpLeg
		{
			OFFSET 1.37959 -1.78713 0.86582
			CHANNELS 3 Zrotation Yrotation Xrotation
			JOINT LeftLeg
			{
				OFFSET 2.54611 -6.99539 0.00000
				CHANNELS 3 Zrotation Yrotation Xrotation
				JOINT LeftFoot
				{
					OFFSET 2.59951 -7.14211 0.00000
					CHANNELS 3 Zrotation Yrotation Xrotation
					JOINT LeftToeBase
					{
						OFFSET 0.18493 -0.50810 1.96120
						CHANNELS 3 Zrotation Yrotation Xrotation
						End Site
						{
							OFFSET 0.00000 -0.00000 1.02054
						}
					}
				}
			}
		}
	}
	JOINT RHipJoint
	{
		OFFSET 0 0 0
		CHANNELS 3 Zrotation Yrotation Xrotation
		JOINT RightUpLeg
		{
			OFFSET -1.33564 -1.78713 0.86582
			CHANNELS 3 Zrotation Yrotation Xrotation
			JOINT RightLeg
			{
				OFFSET -2.52705 -6.94302 0.00000
				CHANNELS 3 Zrotation Yrotation Xrotation
				JOINT RightFoot
				{
					OFFSET -2.55964 -7.03257 0.00000
					CHANNELS 3 Zrotation Yrotation Xrotation
					JOINT RightToeBase
					{
						OFFSET -0.25804 -0.70896 2.12109
						CHANNELS 3 Zrotation Yrotation Xrotation
						End Site
						{
							OFFSET -0.00000 -0.00000 1.11821
						}
					}
				}
			}
		}
	}
	JOINT LowerBack
	{
		OFFSET 0 0 0
		CHANNELS 3 Zrotation Yrotation Xrotation
		JOINT Spine
		{
			OFFSET -0.02031 2.24248 -0.18900
			CHANNELS 3 Zrotation Yrotation Xrotation
			JOINT Spine1
			{
				OFFSET 0.08342 2.24689 -0.03799
				CHANNELS 3 Zrotation Yrotation Xrotation
				JOINT Neck
				{
					OFFSET 0 0 0
					CHANNELS 3 Zrotation Yrotation Xrotation
					JOINT Neck1
					{
						OFFSET -0.11607 1.55844 0.24628
						CHANNELS 3 Zrotation Yrotation Xrotation
						JOINT Head
						{
							OFFSET 0.06877 1.60174 -0.17013
							CHANNELS 3 Zrotation Yrotation Xrotation
							End Site
							{
								OFFSET 0.03358 1.61266 -0.08543
							}
						}
					}
				}
				JOINT LeftShoulder
				{
					OFFSET 0 0 0
					CHANNELS 3 Zrotation Yrotation Xrotation
					JOINT LeftArm
					{
						OFFSET 3.47537 0.55866 -0.72348
						CHANNELS 3 Zrotation Yrotation Xrotation
						JOINT LeftForeArm
						{
							OFFSET 5.38154 -0.00000 0.00000
							CHANNELS 3 Zrotation Yrotation Xrotation
							JOINT LeftHand
							{
								OFFSET 3.33312 -0.00000 0.00000
								CHANNELS 3 Zrotation Yrotation Xrotation
								JOINT LeftFingerBase
								{
									OFFSET 0 0 0
									CHANNELS 3 Zrotation Yrotation Xrotation
									JOINT LeftHandIndex1
									{
										OFFSET 0.71079 -0.00000 0.00000
										CHANNELS 3 Zrotation Yrotation Xrotation
										End Site
										{
											OFFSET 0.57306 -0.00000 0.00000
										}
									}
								}
								JOINT LThumb
								{
									OFFSET 0 0 0
									CHANNELS 3 Zrotation Yrotation Xrotation
									End Site
									{
										OFFSET 0.58181 -0.00000 0.58181
									}
								}
							}
						}
					}
				}
				JOINT RightShoulder
				{
					OFFSET 0 0 0
					CHANNELS 3 Zrotation Yrotation Xrotation
					JOINT RightArm
					{
						OFFSET -3.27844 0.90739 -0.35708
						CHANNELS 3 Zrotation Yrotation Xrotation
						JOINT RightForeArm
						{
							OFFSET -5.16954 -0.00000 0.00000
							CHANNELS 3 Zrotation Yrotation Xrotation
							JOINT RightHand
							{
								OFFSET -3.38287 -0.00000 0.00000
								CHANNELS 3 Zrotation Yrotation Xrotation
								JOINT RightFingerBase
								{
									OFFSET 0 0 0
									CHANNELS 3 Zrotation Yrotation Xrotation
									JOINT RightHandIndex1
									{
										OFFSET -0.81797 -0.00000 0.00000
										CHANNELS 3 Zrotation Yrotation Xrotation
										End Site
										{
											OFFSET -0.65947 -0.00000 0.00000
										}
									}
								}
								JOINT RThumb
								{
									OFFSET 0 0 0
									CHANNELS 3 Zrotation Yrotation Xrotation
									End Site
									{
										OFFSET -0.66953 -0.00000 0.66953
									}
								}
							}
						}
					}
				}
			}
		}
	}
}
MOTION
Frames: 16
Frame Time: .0083333
12.3067 17.6803 5.502 0 0 0 0 0 0 -21 0 0 0 0 0 0 0 0 0 0 0 0 0 0 21 0 0 0 0 0 0 0 0 0 0 0 0 0 0 0 0 0 0 0 0 0 0 -16 0 0 21 0 0 11 0 0 0 -8 0 0 0 0 0 0 0 0 0 0 0 0 0 0 0 0 0 0 0 0 8 0 0 0 0 0 0 0 0 0 0 0 0 0 0 0 0 0
12.3067 17.6803 5.5020 164.5540 -70.8929 -160.1670 0.0000 0.0000 0.0000 -24.2539 5.5272 -13.4725 2.5220 9.8777 28.5817 1.1621 1.7460 -21.0647 0.0140 -0.7640 -2.0996 0.0000 0.0000 0.0000 4.7630 2.6129 -24.9526 -4.6607 -12.9912 39.3356 -0.7393 -2.9269 -17.5594 -0.0879 -1.9122 5.2631 -13.6238 -3.1461 5.2710 0.9917 -4.8852 2.8118 8.8511 -2.7201 1.2554 -16.6773 -14.2583 0.9369 16.2613 -23.8426 19.8537 5.5557 -11.7981 10.1618 -0.0000 0.0000 0.0000 -85.5476 -6.7936 19.9709 14.9848 -24.1249 -3.2197 -0.0000 -0.0000 9.2475 -1.6864 39.4934 -1.0727 -7.1250 0.0000 -0.0000 -45.7995 63.5593 -22.9525 -0.0000 0.0000 0.0000 83.6261 -1.0887 3.0402 -18.5591 28.8672 -4.8161 0.0000 -0.0000 -15.9329 -9.3100 22.5450 -3.5965 7.1250 -0.0000 -0.0000 12.2741 -7.5877 10.8033
12.3097 17.6812 5.4772 164.7010 -70.9168 -160.3570 0.0000 0.0000 0.0000 -24.1343 5.5462 -13.4716 2.5376 9.9060 28.6729 1.1311 2.1266 -20.9610 0.0487 -1.4237 -3.9154 0.0000 0.0000 0.0000 4.6418 2.5396 -24.8067 -4.6794 -13.0134 39.4186 -0.7234 -2.9994 -17.4276 -0.0507 -1.4529 3.9958 -13.4941 -2.9733 5.6788 1.1204 -4.7146 2.6843 8.9547 -2.5981 0.8470 -16.8270 -14.4326 1.0063 16.1495 -24.1095 19.9811 5.4909 -11.9360 10.2510 -0.0000 0.0000 0.0000 -85.6912 -6.8257 20.5349 15.0611 -24.2311 -3.2510 -0.0000 -0.0000 9.0598 -1.3341 39.3749 -0.8464 -7.1250 0.0000 -0.0000 -45.3008 63.5714 -22.6621 -0.0000 0.0000 0.0000 83.0127 -1.2857 2.1606 -18.6729 29.0102 -4.8712 0.0000 -0.0000 -16.0347 -8.6030 22.8648 -3.3642 7.1250 -0.0000 -0.0000 12.7160 -7.3425 11.2751
12.3033 17.6782 5.4467 164.5760 -70.8615 -160.3080 0.0000 0.0000 0.0000 -24.1097 5.5932 -13.3040 2.5197 9.8736 28.5683 1.1139 2.2498 -20.8652 0.0600 -1.5804 -4.3475 0.0000 0.0000 0.0000 4.1586 3.1416 -24.4637 -4.5998 -12.9185 39.0640 -0.7149 -3.3769 -17.5478 -0.1079 -2.1183 5.8326 -13.5986 -2.9632 5.8652 1.2959 -4.7340 2.6761 9.2189 -2.6058 0.7649 -16.8720 -14.4873 0.8951 15.7586 -24.0581 20.0510 5.3619 -11.9217 10.2358 -0.0000 -0.0000 0.0000 -85.9301 -6.8241 20.7202 15.2925 -24.5521 -3.3466 -0.0000 -0.0000 8.6460 -1.6242 39.4475 -1.0321 -7.1250 0.0000 -0.0000 -45.6760 63.5439 -22.8611 -0.0000 -0.0000 0.0000 82.0588 -1.1004 2.0200 -18.7138 29.0616 -4.8911 0.0000 -0.0000 -16.5693 -7.9974 22.7849 -3.1144 7.1250 -0.0000 -0.0000 13.0895 -7.4781 11.5891
12.2915 17.6764 5.4113 164.2640 -70.9541 -160.1010 0.0000 0.0000 0.0000 -24.0477 5.9401 -13.1772 2.4973 9.8330 28.4377 1.1093 1.9620 -20.6939 0.0699 -1.7058 -4.6932 0.0000 0.0000 0.0000 3.6258 3.5879 -24.1373 -4.5525 -12.8614 38.8517 -0.7291 -3.7493 -17.9178 -0.2757 -3.3773 9.3311 -13.4103 -3.0376 5.7546 1.1717 -4.8017 2.8753 8.9600 -2.6671 1.0278 -16.6831 -14.5006 0.8343 15.9093 -24.0822 19.9121 5.3794 -11.9091 10.1979 -0.0000 0.0000 0.0000 -85.6542 -7.0682 20.9042 15.5195 -24.8648 -3.4414 -0.0000 -0.0000 8.0679 -2.0136 39.4520 -1.2798 -7.1250 0.0000 -0.0000 -46.0470 63.4411 -22.9790 -0.0000 0.0000 0.0000 81.5814 -0.5778 1.9698 -18.6347 28.9623 -4.8527 0.0000 -0.0000 -16.4183 -8.5037 22.9592 -3.3379 7.1250 -0.0000 -0.0000 12.7783 -7.2595 11.3546
12.2837 17.6902 5.3784 164.8870 -71.2120 -160.6490 0.0000 0.0000 0.0000 -23.5958 6.1758 -13.1740 2.4804 9.8021 28.3382 1.1132 1.5389 -20.5447 0.0564 -1.5318 -4.2134 0.0000 0.0000 0.0000 3.7086 3.4845 -23.7798 -4.4746 -12.7664 38.5004 -0.7035 -4.1678 -17.8989 -0.2483 -3.2064 8.8538 -12.7092 -3.0533 5.5594 1.0440 -4.7535 3.0590 8.4032 -2.6549 1.2429 -16.5415 -14.5494 0.9709 16.4726 -24.2953 19.6640 5.5259 -11.9822 10.1882 0.0000 0.0000 0.0000 -85.2203 -7.4551 21.4242 15.6977 -25.1090 -3.5167 -0.0000 -0.0000 7.5390 -2.0003 39.4533 -1.2714 -7.1250 0.0000 -0.0000 -46.0365 63.4456 -22.9773 0.0000 0.0000 0.0000 81.3933 -0.2758 1.4432 -18.7586 29.1177 -4.9128 0.0000 -0.0000 -15.8272 -9.8152 23.2250 -3.9028 7.1250 -0.0000 -0.0000 11.9728 -6.8673 10.6975
12.2801 17.7016 5.3448 165.0770 -71.3968 -160.7550 0.0000 0.0000 0.0000 -23.3211 6.3070 -13.2214 2.4716 9.7861 28.2867 1.1214 1.1538 -20.4584 0.0542 -1.5028 -4.1333 0.0000 0.0000 0.0000 3.5709 3.3304 -23.7460 -4.3978 -12.6718 38.1519 -0.6277 -4.6531 -17.3802 -0.1033 -2.0729 5.7071 -12.5756 -3.0312 5.6823 1.3076 -4.7327 3.0625 8.6211 -2.6425 1.1854 -16.7798 -14.6757 0.8674 16.4192 -24.4154 19.6355 5.5048 -12.0386 10.2451 0.0000 -0.0000 0.0000 -85.5253 -7.6229 21.9131 15.9344 -25.4316 -3.6177 -0.0000 -0.0000 7.0838 -1.5705 39.4822 -0.9988 -7.1250 0.0000 -0.0000 -45.6748 63.5829 -22.9013 0.0000 -0.0000 0.0000 80.3612 0.0086 0.9149 -18.8283 29.2047 -4.9468 0.0000 -0.0000 -15.8785 -10.2206 23.3989 -4.0955 7.1250 -0.0000 -0.0000 11.7266 -6.6532 10.5172
12.2820 17.6790 5.3084 164.2620 -71.3887 -160.0520 0.0000 0.0000 0.0000 -23.4399 6.6292 -13.2148 2.4621 9.7687 28.2309 1.1197 0.9333 -20.3553 0.0975 -2.0135 -5.5429 0.0000 0.0000 0.0000 2.8444 3.4489 -23.8792 -4.3368 -12.5955 37.8727 -0.5519 -5.1470 -16.8559 -0.0736 -1.7507 4.8171 -13.0342 -2.9745 5.9477 1.6351 -4.7171 3.1131 9.2534 -2.6513 1.1611 -17.0689 -14.8176 0.5378 16.1097 -24.4230 19.6113 5.4029 -12.0386 10.2921 -0.0000 0.0000 0.0000 -86.1397 -7.8429 22.1459 16.1476 -25.7204 -3.7098 -0.0000 -0.0000 6.8482 -1.4156 39.3706 -0.8981 -7.1250 0.0000 -0.0000 -45.3715 63.5463 -22.6787 -0.0000 0.0000 0.0000 78.9399 0.5027 0.6454 -18.8149 29.1881 -4.9403 0.0000 -0.0000 -16.3903 -10.1998 23.4957 -4.1030 7.1250 -0.0000 -0.0000 11.7417 -6.5600 10.5530
12.2845 17.6615 5.2679 163.3710 -71.2913 -159.3510 0.0000 0.0000 0.0000 -23.6013 6.8473 -13.0599 2.4550 9.7557 28.1891 1.1086 0.9093 -20.2461 0.1369 -2.3848 -6.5705 0.0000 0.0000 0.0000 2.1797 3.5454 -23.6528 -4.2829 -12.5276 37.6249 -0.5246 -5.6518 -16.9123 -0.0779 -1.8001 4.9536 -13.4905 -2.8935 6.1343 1.8125 -4.6592 3.2413 9.7148 -2.6496 1.2384 -17.2290 -14.8962 0.6002 16.1619 -24.4320 19.2285 5.4451 -12.0468 10.1742 -0.0000 0.0000 0.0000 -86.5241 -8.0567 22.5835 16.4222 -26.0898 -3.8298 -0.0000 -0.0000 6.7779 -1.3890 39.6896 -0.8871 -7.1250 0.0000 -0.0000 -45.8008 63.7786 -23.1830 -0.0000 0.0000 0.0000 77.8283 1.0621 0.1139 -18.8653 29.2510 -4.9649 0.0000 -0.0000 -16.6459 -10.4484 23.6471 -4.2302 7.1250 -0.0000 -0.0000 11.5926 -6.3837 10.4533
12.2837 17.6716 5.2297 162.8560 -71.0688 -158.8100 0.0000 0.0000 0.0000 -23.7371 7.0736 -13.1248 2.4476 9.7420 28.1453 1.0997 0.8589 -20.1469 0.1588 -2.5679 -7.0779 0.0000 0.0000 0.0000 1.6060 3.6962 -23.4346 -4.2321 -12.4630 37.3904 -0.5136 -5.8742 -16.9547 -0.1213 -2.2452 6.1837 -13.5703 -2.8429 6.4748 1.8486 -4.6535 2.9729 9.8380 -2.5966 0.7693 -17.4924 -14.8433 1.1434 16.1982 -24.4235 19.0817 5.5431 -12.0973 10.0614 -0.0000 0.0000 0.0000 -86.7014 -7.5727 23.0373 16.7580 -26.5377 -3.9786 -0.0000 -0.0000 6.7178 -1.0740 40.0807 -0.6916 -7.1250 0.0000 -0.0000 -46.0742 64.1396 -23.7293 -0.0000 0.0000 0.0000 76.9017 1.1070 -0.2558 -18.9971 29.4151 -5.0294 0.0000 -0.0000 -17.1055 -9.8971 23.8674 -4.0382 7.1250 -0.0000 -0.0000 11.9368 -6.2259 10.8150
12.2780 17.6855 5.2068 163.5470 -71.0974 -159.3210 0.0000 0.0000 0.0000 -23.4485 7.1854 -13.2375 2.4275 9.7050 28.0265 1.0932 0.8080 -20.0686 0.1879 -2.7919 -7.6999 0.0000 0.0000 0.0000 1.4740 3.6422 -23.4681 -4.1874 -12.4057 37.1828 -0.4659 -6.1530 -16.6071 -0.1133 -2.1704 5.9767 -13.0674 -2.9846 6.2831 2.0258 -4.7810 3.1150 9.7246 -2.6835 1.0325 -17.7709 -14.7941 1.0369 16.4101 -24.3071 18.8615 5.6643 -12.0371 10.0484 -0.0000 0.0000 0.0000 -86.8836 -7.8937 23.0145 16.9606 -26.8058 -4.0695 -0.0000 -0.0000 6.7638 -0.9959 39.6028 -0.6349 -7.1250 0.0000 -0.0000 -45.3067 63.8254 -22.9288 -0.0000 0.0000 0.0000 75.8921 1.8895 -0.2783 -19.2185 29.6893 -5.1386 0.0000 -0.0000 -17.7089 -9.8640 23.8513 -4.0219 7.1250 -0.0000 -0.0000 11.9567 -6.2452 10.8293
12.2691 17.6869 5.1872 163.2330 -71.3621 -159.0010 0.0000 0.0000 0.0000 -23.4005 6.9640 -13.0661 2.4020 9.6575 27.8745 1.0805 0.8375 -19.9643 0.2311 -3.0942 -8.5412 0.0000 0.0000 0.0000 1.0708 3.2220 -23.4505 -4.1240 -12.3237 36.8868 -0.4157 -6.5266 -16.3015 -0.0652 -1.6479 4.5335 -12.6918 -3.1074 6.2726 2.1301 -4.9199 3.3295 9.6139 -2.7806 1.2781 -17.8318 -14.8485 0.8031 16.6112 -24.2886 18.5315 5.7227 -11.9986 10.0079 -0.0000 -0.0000 0.0000 -86.8987 -8.2742 23.7312 17.2697 -27.2119 -4.2099 -0.0000 -0.0000 6.4369 -1.2697 39.1277 -0.8013 -7.1250 0.0000 -0.0000 -44.8934 63.4132 -22.2527 -0.0000 -0.0000 0.0000 74.9173 2.7324 -0.7065 -19.3807 29.8889 -5.2192 0.0000 -0.0000 -18.2014 -11.4626 23.5969 -4.6405 7.1250 -0.0000 -0.0000 10.9662 -6.3205 9.8794
12.2629 17.6768 5.1560 161.6340 -71.4595 -157.4400 0.0000 0.0000 0.0000 -23.7856 6.8551 -13.0271 2.3999 9.6536 27.8622 1.0724 0.7878 -19.8713 0.2854 -3.4357 -9.4942 0.0000 0.0000 0.0000 0.1426 2.9604 -23.3257 -4.0057 -12.1680 36.3288 -0.3541 -6.9497 -15.8926 -0.0616 -1.6019 4.4066 -12.6471 -3.0626 6.3839 1.9718 -4.8729 3.3898 9.4212 -2.7558 1.2478 -17.4697 -15.0843 0.7116 16.5336 -24.5610 18.3647 5.5872 -12.0959 9.9585 -0.0000 0.0000 0.0000 -86.6347 -8.3338 25.1934 17.7319 -27.8125 -4.4234 -0.0000 -0.0000 5.7831 -1.1619 39.1547 -0.7337 -7.1250 0.0000 -0.0000 -44.8295 63.4617 -22.2643 -0.0000 0.0000 0.0000 74.1367 3.3899 -1.7650 -19.3061 29.7973 -5.1821 0.0000 -0.0000 -18.3464 -12.6152 23.7562 -5.1518 7.1250 -0.0000 -0.0000 10.2613 -6.0271 9.2808
12.2580 17.6747 5.1195 161.4890 -71.4984 -157.2480 0.0000 0.0000 0.0000 -23.6734 7.0782 -13.1670 2.4147 9.6812 27.9503 1.0775 0.4824 -19.8021 0.2568 -3.2604 -9.0045 0.0000 0.0000 0.0000 -0.3266 3.1517 -23.0162 -3.8507 -11.9590 35.5870 -0.3179 -7.2570 -15.7051 -0.1115 -2.1527 5.9279 -12.1414 -2.9083 6.5201 1.8361 -4.6576 3.3327 8.9965 -2.6150 0.9950 -17.0281 -15.3295 0.9498 16.3914 -24.9285 18.2845 5.4336 -12.2633 9.8762 0.0000 -0.0000 0.0000 -86.3057 -8.2430 26.7000 18.1325 -28.3264 -4.6119 -0.0000 -0.0000 5.1725 -0.5559 39.2518 -0.3517 -7.1250 0.0000 -0.0000 -44.3924 63.6958 -22.2412 0.0000 -0.0000 0.0000 73.5859 3.6805 -2.9549 -19.3406 29.8397 -5.1992 0.0000 -0.0000 -18.2118 -12.2902 24.5900 -5.1800 7.1250 -0.0000 -0.0000 10.4964 -5.2367 9.6617
12.2602 17.6720 5.0852 162.6060 -71.4528 -158.2530 0.0000 0.0000 0.0000 -23.1934 7.2461 -13.3429 2.4351 9.7190 28.0715 1.0934 0.3433 -19.8967 0.1994 -2.8756 -7.9325 0.0000 0.0000 0.0000 -0.4469 3.7763 -22.6926 -3.6835 -11.7269 34.7725 -0.3416 -7.2920 -16.0514 -0.2260 -3.0601 8.4460 -11.7609 -2.8554 6.5459 2.0953 -4.5675 3.4060 9.0581 -2.5745 1.0255 -16.8566 -15.3887 1.0726 16.2261 -24.9052 17.9861 5.3750 -12.2568 9.6957 -0.0000 -0.0000 0.0000 -86.4024 -8.3680 27.5094 18.5115 -28.8071 -4.7932 -0.0000 -0.0000 4.5115 -0.0771 39.3960 -0.0490 -7.1250 0.0000 -0.0000 -44.1422 63.9305 -22.3278 -0.0000 -0.0000 0.0000 72.5471 4.3945 -3.5485 -19.4488 29.9726 -5.2532 0.0000 -0.0000 -18.4424 -11.6993 25.2755 -5.0527 7.1250 -0.0000 -0.0000 10.8860 -4.6286 10.1609
12.2668 17.6655 5.0499 163.0020 -71.4364 -158.6120 0.0000 0.0000 0.0000 -22.9245 7.1647 -13.4049 2.4580 9.7611 28.2066 1.1066 0.4267 -20.0455 0.2033 -2.9029 -8.0086 0.0000 0.0000 0.0000 -0.7428 4.1336 -22.3981 -3.5122 -11.4813 33.9209 -0.3285 -7.4925 -16.0738 -0.2929 -3.4802 9.6185 -11.5232 -2.8786 6.5651 2.2944 -4.5883 3.6290 9.1304 -2.6144 1.2535 -16.7722 -15.3573 0.9591 16.3455 -24.7346 17.5332 5.4292 -12.1568 9.5314 -0.0000 -0.0000 0.0000 -86.4540 -8.6534 28.1695 19.0157 -29.4382 -5.0386 -0.0000 -0.0000 4.1267 0.0118 39.6296 0.0075 -7.1250 0.0000 -0.0000 -44.3923 64.1223 -22.6734 -0.0000 -0.0000 0.0000 71.3267 5.5031 -3.8299 -19.5073 30.0442 -5.2824 0.0000 -0.0000 -19.1938 -12.0001 24.8214 -5.0990 7.1250 -0.0000 -0.0000 10.6835 -5.0423 9.8802
